<?xml version="1.0" encoding="UTF-8" standalone="no"?>
<!-- Created with Inkscape (http://www.inkscape.org/) -->

<svg
   xmlns:dc="http://purl.org/dc/elements/1.1/"
   xmlns:cc="http://creativecommons.org/ns#"
   xmlns:rdf="http://www.w3.org/1999/02/22-rdf-syntax-ns#"
   xmlns:svg="http://www.w3.org/2000/svg"
   xmlns="http://www.w3.org/2000/svg"
   xmlns:sodipodi="http://sodipodi.sourceforge.net/DTD/sodipodi-0.dtd"
   xmlns:inkscape="http://www.inkscape.org/namespaces/inkscape"
   width="744.09448819"
   height="1052.3622047"
   id="svg2"
   version="1.1"
   inkscape:version="0.48.5 r10040"
   sodipodi:docname="sasienlogo.svg">
  <defs
     id="defs4" />
  <sodipodi:namedview
     id="base"
     pagecolor="#ffffff"
     bordercolor="#666666"
     borderopacity="1.0"
     inkscape:pageopacity="0.0"
     inkscape:pageshadow="2"
     inkscape:zoom="0.5"
     inkscape:cx="1258.2403"
     inkscape:cy="350.5016"
     inkscape:document-units="px"
     inkscape:current-layer="layer4"
     showgrid="false"
     inkscape:window-width="1920"
     inkscape:window-height="1031"
     inkscape:window-x="0"
     inkscape:window-y="0"
     inkscape:window-maximized="1">
    <inkscape:grid
       type="xygrid"
       id="grid2987" />
  </sodipodi:namedview>
  <metadata
     id="metadata7">
    <rdf:RDF>
      <cc:Work
         rdf:about="">
        <dc:format>image/svg+xml</dc:format>
        <dc:type
           rdf:resource="http://purl.org/dc/dcmitype/StillImage" />
        <dc:title></dc:title>
      </cc:Work>
    </rdf:RDF>
  </metadata>
  <g
     inkscape:groupmode="layer"
     id="layer2"
     inkscape:label="Lens"
     style="display:inline">
    <path
       style="fill:#9c64aa;fill-opacity:1;stroke:#9c64aa;stroke-width:0;stroke-miterlimit:0;stroke-opacity:1;stroke-dasharray:none"
       d="m 215.23265,152.6484 c -7.18967,-2.98022 -14.64017,-4.73567 -22.05698,-5.38175 l -18.93087,45.70316 63.12332,-26.14653 c -4.55318,-4.19769 -9.6914,-7.92486 -15.43649,-10.99418 -2.20652,-1.17882 -4.43591,-2.24269 -6.69898,-3.1807 z"
       id="path3900"
       inkscape:connector-curvature="0" />
    <path
       style="fill:#7b63ab;fill-opacity:1;stroke:#9c64aa;stroke-width:0;stroke-miterlimit:0;stroke-opacity:1;stroke-dasharray:none"
       d="m 187.87462,146.99889 c -17.07923,-0.25843 -33.6926,5.42914 -46.69952,16.1386 l 19.99539,48.33087 z"
       id="path3898"
       inkscape:connector-curvature="0" />
    <path
       style="fill:#cb84b8;fill-opacity:0.94117647;stroke:#9c64aa;stroke-width:0;stroke-miterlimit:0;stroke-opacity:1;stroke-dasharray:none"
       d="m 241.23907,170.62528 -43.57767,18.07438 62.85268,26.03443 c -1.04531,-16.15529 -7.79341,-31.8332 -19.27501,-44.10881 z"
       id="path3896"
       inkscape:connector-curvature="0" />
    <path
       style="fill:#9b83b9;fill-opacity:1;stroke:#9c64aa;stroke-width:0;stroke-miterlimit:0;stroke-opacity:1;stroke-dasharray:none"
       d="m 137.22089,166.64096 c -4.92786,4.74196 -9.23243,10.28665 -12.65045,16.57698 -5.41638,9.96802 -8.02841,20.68556 -8.18203,31.34892 l 49.0811,20.33006 z"
       id="path3894"
       inkscape:connector-curvature="0" />
    <path
       style="fill:#9b83b9;fill-opacity:1;stroke:#9c64aa;stroke-width:0;stroke-miterlimit:0;stroke-opacity:1;stroke-dasharray:none"
       d="m 211.54055,199.86055 28.26058,68.22709 c 4.92957,-4.74423 9.20962,-10.30979 12.62157,-16.58894 5.40949,-9.95532 8.03916,-20.65814 8.19895,-31.30809 z"
       id="path3892"
       inkscape:connector-curvature="0" />
    <path
       style="fill:#7b63ab;fill-opacity:1;stroke:#9c64aa;stroke-width:0;stroke-miterlimit:0;stroke-opacity:1;stroke-dasharray:none"
       d="m 215.82266,223.24828 -26.70413,64.46947 c 17.09867,0.25944 33.73604,-5.41762 46.71642,-16.09777 z"
       id="path3890"
       inkscape:connector-curvature="0" />
    <path
       style="fill:#9c64aa;fill-opacity:1;stroke:#9c64aa;stroke-width:0;stroke-miterlimit:0;stroke-opacity:1;stroke-dasharray:none"
       d="m 202.74835,241.74683 -63.12333,26.14653 c 4.55319,4.19769 9.69141,7.92486 15.4365,10.99418 l 3.02242,1.52252 c 8.34022,3.98528 17.05262,6.28092 25.73354,7.03993 z"
       id="path3888"
       inkscape:connector-curvature="0" />
    <path
       style="fill:#cb84b8;fill-opacity:1;stroke:#9c64aa;stroke-width:0;stroke-miterlimit:0;stroke-opacity:1;stroke-dasharray:none"
       d="m 116.49598,220.02338 c 1.0541,16.1407 7.78629,31.80284 19.2581,44.06798 l 43.56571,-18.04551 z"
       id="path3816"
       inkscape:connector-curvature="0" />
  </g>
  <g
     inkscape:groupmode="layer"
     id="layer3"
     inkscape:label="s-font"
     style="display:none">
    <text
       xml:space="preserve"
       style="font-size:64px;font-style:normal;font-variant:normal;font-weight:normal;font-stretch:normal;line-height:125%;letter-spacing:0px;word-spacing:0px;fill:#7b63ab;fill-opacity:1;stroke:none;font-family:Etude;-inkscape-font-specification:Etude"
       x="58.664196"
       y="381.66995"
       id="text3003"
       sodipodi:linespacing="125%"
       transform="matrix(0.8340977,-0.55161675,0.55161675,0.8340977,0,0)"><tspan
         sodipodi:role="line"
         id="tspan3005"
         x="58.664196"
         y="381.66995">S</tspan></text>
  </g>
  <g
     inkscape:groupmode="layer"
     id="layer1"
     inkscape:label="new" />
  <g
     inkscape:groupmode="layer"
     id="layer4"
     inkscape:label="circle">
    <path
       style="fill:#9c64aa;fill-opacity:1;stroke:#9c64aa;stroke-width:0;stroke-miterlimit:0;stroke-opacity:1;stroke-dasharray:none"
       d="m 259.75864,723.41261 c 12.39734,29.95073 32.23897,55.03472 56.65834,73.7437 L 419.66053,754.39143 248.37828,683.44401 c 1.24427,7.5399 2.9502,15.09066 5.20273,22.60468 1.78413,5.95154 3.85142,11.74414 6.17763,17.36392 z"
       id="path3833"
       inkscape:connector-curvature="0"
       inkscape:export-filename="/home/joente/Pictures/sasien_logo.png"
       inkscape:export-xdpi="299.85999"
       inkscape:export-ydpi="299.85999" />
    <path
       style="fill:#cb84b8;fill-opacity:1;stroke:#9c64aa;stroke-width:0;stroke-miterlimit:0;stroke-opacity:1;stroke-dasharray:none"
       d="M 246.83978,671.972 341.27979,711.09035 276.3432,554.31954 C 253.67065,588.28616 242.64046,629.74128 246.83978,671.972 z"
       id="path3831"
       inkscape:connector-curvature="0"
       inkscape:export-filename="/home/joente/Pictures/sasien_logo.png"
       inkscape:export-xdpi="299.85999"
       inkscape:export-ydpi="299.85999" />
    <path
       style="fill:#7b63ab;fill-opacity:1;stroke:#9c64aa;stroke-width:0;stroke-miterlimit:0;stroke-opacity:1;stroke-dasharray:none"
       d="m 325.9892,804.01529 c 33.97299,22.67678 75.41355,33.70921 117.65248,29.50341 l 39.11832,-94.44 -156.7708,64.93659 z"
       id="path3829"
       inkscape:connector-curvature="0"
       inkscape:export-filename="/home/joente/Pictures/sasien_logo.png"
       inkscape:export-xdpi="299.85999"
       inkscape:export-ydpi="299.85999" />
    <path
       style="fill:#9b83b9;fill-opacity:1;stroke:#9c64aa;stroke-width:0;stroke-miterlimit:0;stroke-opacity:1;stroke-dasharray:none"
       d="m 325.96705,647.99085 70.94743,-171.28222 c -7.54436,1.24358 -15.08211,2.98008 -22.59273,5.23158 -37.66735,11.29177 -68.90048,33.80907 -91.11958,62.80712 l 42.76488,103.24352 z"
       id="path3825"
       inkscape:connector-curvature="0"
       inkscape:export-filename="/home/joente/Pictures/sasien_logo.png"
       inkscape:export-xdpi="299.85999"
       inkscape:export-ydpi="299.85999" />
    <path
       style="fill:#9b83b9;fill-opacity:1;stroke:#9c64aa;stroke-width:0;stroke-miterlimit:0;stroke-opacity:1;stroke-dasharray:none"
       d="m 455.0848,831.99215 c 7.5399,-1.24426 15.07869,-2.97906 22.59274,-5.23159 37.682,-11.29616 68.91574,-33.83359 91.13646,-62.84793 L 526.04914,660.66908 455.0848,831.99215 z"
       id="path3823"
       inkscape:connector-curvature="0"
       inkscape:export-filename="/home/joente/Pictures/sasien_logo.png"
       inkscape:export-xdpi="299.85999"
       inkscape:export-ydpi="299.85999" />
    <path
       style="fill:#7b63ab;fill-opacity:1;stroke:#9c64aa;stroke-width:0;stroke-miterlimit:0;stroke-opacity:1;stroke-dasharray:none"
       d="M 369.26814,569.61012 526.01008,504.68549 C 491.98558,481.9762 450.52939,471.02118 408.36956,475.21094 l -39.10142,94.39918 z"
       id="path3821"
       inkscape:connector-curvature="0"
       inkscape:export-filename="/home/joente/Pictures/sasien_logo.png"
       inkscape:export-xdpi="299.85999"
       inkscape:export-ydpi="299.85999" />
    <path
       style="fill:#9c64aa;fill-opacity:1;stroke:#9c64aa;stroke-width:0;stroke-miterlimit:0;stroke-opacity:1;stroke-dasharray:none"
       d="m 432.33874,554.30935 171.32307,70.96434 c -1.24459,-7.54976 -2.98807,-15.09772 -5.24354,-22.62162 l -2.58673,-7.95974 c -12.01344,-34.20666 -33.3735,-62.55699 -60.24925,-83.14785 l -103.24355,42.76487 z"
       id="path3819"
       inkscape:connector-curvature="0"
       inkscape:export-filename="/home/joente/Pictures/sasien_logo.png"
       inkscape:export-xdpi="299.85999"
       inkscape:export-ydpi="299.85999" />
    <path
       style="fill:#cb84b8;fill-opacity:1;stroke:#9c64aa;stroke-width:0;stroke-miterlimit:0;stroke-opacity:1;stroke-dasharray:none"
       d="m 575.68495,754.36929 c 22.6779,-33.97466 33.6701,-75.42832 29.46258,-117.66939 l -94.39917,-39.10142 64.93659,156.77081 z"
       id="path3813"
       inkscape:connector-curvature="0"
       inkscape:export-filename="/home/joente/Pictures/sasien_logo.png"
       inkscape:export-xdpi="299.85999"
       inkscape:export-ydpi="299.85999" />
    <text
       xml:space="preserve"
       style="font-size:292px;font-style:normal;font-variant:normal;font-weight:normal;font-stretch:normal;line-height:125%;letter-spacing:0px;word-spacing:0px;fill:#7b63ab;fill-opacity:1;stroke:none;font-family:Etude;-inkscape-font-specification:Etude"
       x="-130.22104"
       y="849.25629"
       id="text3835"
       sodipodi:linespacing="125%"
       transform="matrix(0.79057601,-0.61236392,0.61236392,0.79057601,0,0)"
       inkscape:export-xdpi="299.85999"
       inkscape:export-ydpi="299.85999"
       inkscape:export-filename="/home/joente/Pictures/sasien_logo.png"><tspan
         sodipodi:role="line"
         id="tspan3837"
         x="-130.22104"
         y="849.25629">s</tspan></text>
  </g>
</svg>
